<svg data-v-16893238="" height="65" viewBox="0 0 140 31" width="160" fill="none"
  xmlns="http://www.w3.org/2000/svg" style="color: rgb(0, 0, 0);">
  <path d="M15.5151 6.8292C17.8579 6.74083 20.139 7.55723 21.8575 9.09918C23.5761 10.6411 24.5918 12.7827 24.6817 15.0537L31.1159 14.8052C31.0028 11.877 29.9966 9.0492 28.2245 6.67929C26.4523 4.30938 23.9938 2.50384 21.16 1.49103C18.3261 0.478222 15.2441 0.303642 12.3037 0.989311C9.36324 1.67498 6.69644 3.19009 4.64057 5.34312C2.58469 7.49615 1.23202 10.1904 0.753652 13.0851C0.275284 15.9798 0.692712 18.945 1.95309 21.6056C3.21347 24.2663 5.2602 26.5029 7.83451 28.0328C10.4088 29.5626 13.3951 30.3169 16.4156 30.2003L16.1747 23.9627C13.853 24.018 11.6042 23.1859 9.91391 21.646C8.22361 20.106 7.22747 17.9818 7.1406 15.7321C7.05372 13.4824 7.88307 11.2877 9.44957 9.622C11.0161 7.95627 13.194 6.95314 15.5131 6.82927L15.5151 6.8292Z" fill="#687BEA"></path>
  <path d="M22.2839 15.397H15.8448C15.8497 19.3251 17.4615 23.0909 20.3267 25.8685C23.1918 28.646 27.0764 30.2086 31.1283 30.2133V23.9711C28.7833 23.969 26.5349 23.065 24.8768 21.4575C23.2186 19.85 22.2861 17.6704 22.2839 15.397Z" fill="#687BEA"></path>
  <path d="M46.3342 24.6314H48.7786V17.7392H56.8376V15.4848H48.7786V10.4275H59.0831V8.18106H46.3342V24.6314Z" fill="black"></path>
  <path d="M114.803 20.1421L105.371 8.17258H103.484V24.6309H105.928V12.725L115.292 24.6309H117.252V8.17258H114.808L114.803 20.1421Z" fill="black"></path>
  <path d="M89.1679 8.17258L82.3823 24.6309H84.9846L90.4987 11.2321L96.015 24.6309H98.6173L91.8317 8.17258H89.1679Z" fill="black"></path>
  <path d="M76.73 16.254C77.2904 15.4854 77.6216 14.5821 77.6874 13.6431C77.7532 12.7041 77.551 11.7657 77.103 10.9308C76.655 10.0958 75.9785 9.39665 75.1477 8.90981C74.3168 8.42297 73.3638 8.1673 72.3929 8.17087H64.6702V24.6292H67.1146V10.3994H72.3929C72.7771 10.3932 73.1582 10.4656 73.5116 10.6119C73.8649 10.7582 74.1825 10.975 74.4436 11.2482C74.7178 11.5207 74.9334 11.8432 75.0781 12.1971C75.2228 12.551 75.2936 12.9292 75.2864 13.3097C75.2931 13.6925 75.2219 14.0728 75.077 14.4289C74.932 14.7851 74.7161 15.11 74.4415 15.3852C74.1835 15.6603 73.8682 15.8793 73.5165 16.0277C73.1648 16.1761 72.7847 16.2505 72.4011 16.246H70.5145L75.5714 24.6272H78.2906L74.3082 18.0669C75.2823 17.7075 76.125 17.0767 76.73 16.254Z" fill="black"></path>
  <path d="M136.831 22.8421C137.108 22.6214 137.383 22.3927 137.639 22.1502C138.986 20.7485 139.807 18.9479 139.97 17.0386C140.133 15.1292 139.628 13.2223 138.536 11.6252C137.444 10.0282 135.83 8.83408 133.952 8.23525C132.075 7.63641 130.045 7.66781 128.188 8.32437C126.331 8.98092 124.757 10.2244 123.718 11.8543C122.68 13.4843 122.237 15.4058 122.463 17.3092C122.688 19.2126 123.568 20.9869 124.961 22.3462C126.354 23.7055 128.178 24.5707 130.14 24.8022C130.907 24.9319 131.694 24.8911 132.443 24.6829C132.142 23.9685 131.952 23.2148 131.879 22.4464C131.4 22.4666 130.92 22.456 130.443 22.4146C128.944 22.2393 127.558 21.5498 126.537 20.4707C125.516 19.3916 124.927 17.9941 124.876 16.5307C124.825 15.0672 125.316 13.6344 126.26 12.491C127.203 11.3477 128.538 10.5693 130.022 10.2965C131.506 10.0237 133.041 10.2744 134.351 11.0034C135.661 11.7324 136.659 12.8916 137.164 14.2715C137.67 15.6514 137.649 17.161 137.107 18.5275C136.564 19.8941 135.535 21.0274 134.206 21.7228H134.182V21.7367C134.187 23.2187 134.799 24.6381 135.881 25.6846C136.964 26.731 138.429 27.3193 139.958 27.3209V24.9632C139.276 24.9607 138.611 24.7562 138.052 24.3771C137.493 23.998 137.067 23.4624 136.831 22.8421Z" fill="black"></path>
</svg>